<svg version="1.1" id="Layer_1" xmlns="http://www.w3.org/2000/svg" xmlns:xlink="http://www.w3.org/1999/xlink" x="0px" y="0px"
	 width="100%" viewBox="0 0 1024 368" enable-background="new 0 0 1024 368" xml:space="preserve">
<path fill="#000000" opacity="1.000000" stroke="none" 
	d="
M1.000000,189.375000 
	C3.292977,188.522858 4.635623,186.715714 6.144961,185.207077 
	C53.626526,137.746445 101.128593,90.306099 148.475067,42.711006 
	C152.027344,39.140079 153.946823,39.608910 157.213699,42.893143 
	C203.496338,89.421730 249.898605,135.831284 296.271698,182.269897 
	C296.507111,182.505646 296.736633,182.747314 296.973053,182.982056 
	C305.034393,190.986694 305.021698,190.973846 297.142395,198.849243 
	C250.485001,245.483475 203.798172,292.088440 157.253937,338.835327 
	C153.808746,342.295471 151.979279,342.748810 148.242096,338.990112 
	C100.672470,291.146027 52.910519,243.493179 5.189642,195.799530 
	C4.013065,194.623642 2.746541,193.537735 1.260988,192.204926 
	C1.000000,191.250000 1.000000,190.500000 1.000000,189.375000 
M100.081894,190.488068 
	C100.368904,181.848175 99.199837,173.156494 100.735512,164.569366 
	C101.804726,158.590546 106.086014,155.298309 111.113029,156.171234 
	C116.469254,157.101303 121.964325,152.061874 121.865364,146.003357 
	C120.509506,147.083725 121.874275,149.190659 120.257843,149.907654 
	C116.597725,145.558411 116.897835,144.748291 123.905258,139.591263 
	C123.744041,135.003052 122.629547,131.475769 116.829857,131.991531 
	C115.297729,132.127792 113.473320,131.122467 113.544029,128.956024 
	C113.611145,126.899727 115.349541,126.942581 116.795982,126.591911 
	C118.191032,126.253700 119.819527,126.432037 120.827126,125.058418 
	C117.876358,120.481262 115.464371,120.205635 111.537971,124.121864 
	C90.553619,145.051910 69.641647,166.054947 48.570572,186.897202 
	C45.543503,189.891403 45.250000,191.793396 48.461460,194.941956 
	C64.155197,210.328293 79.607887,225.960220 95.180275,241.470703 
	C104.000038,250.255402 104.028885,250.223862 114.312370,242.904617 
	C115.123795,242.327057 115.994141,241.829819 116.787056,241.229187 
	C119.696228,239.025452 119.427536,236.867844 116.397362,235.164963 
	C114.391846,234.037903 112.458870,232.809128 110.181061,232.063721 
	C104.293762,230.137039 99.527946,223.522324 100.161934,217.381836 
	C101.057137,208.711227 99.692436,200.111450 100.081894,190.488068 
M191.363953,121.137260 
	C188.501236,118.716072 186.410645,115.383835 182.331696,113.287987 
	C180.911758,119.322304 176.043427,121.780830 172.636276,123.930191 
	C170.863861,132.278656 169.308426,139.605042 167.632980,147.496811 
	C174.038452,143.014664 174.957748,143.091644 180.640182,147.853577 
	C184.647202,151.211502 187.196594,155.738525 190.409531,159.738724 
	C196.457001,167.267944 201.756363,174.897873 199.016739,185.684006 
	C217.741638,185.684006 236.041977,185.684006 255.870041,185.684006 
	C233.880386,163.680420 212.871948,142.658676 191.363953,121.137260 
M184.260422,209.051224 
	C184.489532,211.525238 184.825439,213.994904 184.926300,216.474136 
	C185.162186,222.273163 189.220139,227.864334 185.298737,233.908951 
	C191.904022,236.628906 198.548920,237.898636 204.295364,241.253189 
	C207.452393,243.096161 209.615860,242.682800 212.142426,240.120636 
	C223.818344,228.280121 235.659210,216.602432 247.398209,204.823776 
	C248.748718,203.468719 250.428436,202.260376 250.828934,199.873825 
	C250.143082,199.720261 249.536102,199.466705 248.928635,199.465500 
	C231.966217,199.431717 214.992737,199.074509 198.047516,199.609009 
	C192.462814,199.785172 187.623856,203.319214 184.260422,209.051224 
M122.171753,175.986633 
	C120.736519,182.497009 120.556145,188.861420 124.335587,194.858978 
	C128.122314,187.253525 123.632072,178.440781 127.733253,170.336563 
	C130.797745,173.679932 132.095688,176.726196 131.994736,180.655029 
	C131.833038,186.948654 131.463593,193.281921 132.541794,199.548172 
	C133.070511,202.620987 134.655746,204.287018 137.653687,202.215546 
	C142.771103,198.679550 144.152893,192.798538 146.236618,187.425735 
	C146.422775,186.945740 145.669662,185.899521 145.113342,185.365891 
	C141.140976,181.555527 143.307831,177.842072 145.587830,174.528778 
	C148.612656,170.133087 152.136658,166.080887 155.402237,161.936844 
	C145.847183,155.642517 138.288971,163.477432 129.968857,164.190216 
	C129.532135,164.227615 129.152634,165.174561 128.783859,165.723190 
	C126.653656,168.892197 124.534683,172.068726 122.171753,175.986633 
M180.013062,247.868607 
	C183.370941,245.764908 180.812607,244.360580 179.305679,243.125473 
	C174.483261,239.172821 168.807739,236.127457 166.128799,229.505646 
	C163.861099,231.777023 161.003540,230.508453 158.705902,232.094727 
	C159.149292,233.476242 159.512375,234.730057 159.951416,235.956696 
	C164.563156,248.841293 166.929077,262.258667 169.320618,275.664825 
	C169.557983,276.995422 170.555267,278.661774 168.797653,279.752350 
	C167.302032,280.680328 165.755295,281.042450 164.226852,279.652222 
	C163.619125,279.099457 162.840027,278.717529 161.672806,279.218384 
	C160.801239,280.371582 159.947403,281.730316 160.584732,283.764221 
	C161.136780,283.879730 161.754211,284.096741 162.380600,284.126648 
	C170.572342,284.518341 173.549042,280.973328 171.622864,273.212494 
	C171.304825,271.931091 170.562988,270.201904 171.094086,269.355438 
	C173.850296,264.962219 170.962326,261.640228 169.479355,257.951599 
	C166.853638,251.420563 164.570694,244.772415 163.278107,237.196091 
	C170.814835,238.389679 175.009369,243.198303 180.013062,247.868607 
M172.818726,102.678276 
	C168.743073,98.647118 164.667419,94.615959 160.591782,90.584801 
	C159.448532,97.538284 159.159760,103.963943 159.595978,110.339996 
	C159.761780,112.763458 161.183929,116.073479 164.561386,115.418594 
	C169.534805,114.454269 174.305908,112.590607 179.096786,109.334961 
	C176.894562,106.983292 175.109573,105.077171 172.818726,102.678276 
M127.435074,116.951195 
	C129.185791,118.518463 130.771957,118.987640 132.279816,116.560074 
	C134.515945,112.960022 138.025085,111.204704 141.984848,110.132370 
	C143.562149,109.705231 145.514481,109.389450 145.666946,107.333549 
	C146.062805,101.995102 146.259140,96.640953 145.645065,91.463097 
	C137.942856,99.037483 130.561630,106.296227 122.996452,113.735855 
	C124.269424,114.657089 125.585701,115.609650 127.435074,116.951195 
M134.597351,225.228531 
	C132.603775,218.650787 127.234642,213.944183 124.815056,207.579834 
	C124.235680,206.055878 122.641434,205.977264 121.483841,207.006485 
	C119.524040,208.748932 117.495399,210.513962 115.967438,212.612885 
	C114.551407,214.558044 114.843529,217.549683 116.959625,218.260925 
	C122.905708,220.259460 127.690353,224.917831 134.597351,225.228531 
M151.388138,146.235870 
	C151.186676,154.721878 152.610794,156.895706 158.206360,156.095520 
	C156.452652,152.026749 156.451401,148.774826 162.070755,148.303040 
	C163.280060,148.201508 163.730270,146.801910 163.329407,145.505402 
	C162.964157,144.324066 162.082047,142.946304 160.948334,143.668213 
	C157.994125,145.549316 154.485840,143.902710 151.388138,146.235870 
M137.484009,159.747253 
	C141.035980,159.405029 143.037857,154.702927 147.454407,156.337585 
	C143.693192,154.284241 142.085846,150.522446 139.763550,147.254639 
	C136.315399,151.263123 134.108810,155.335220 133.075989,159.912979 
	C134.656311,160.942856 135.686615,159.979523 137.484009,159.747253 
M145.670761,235.548660 
	C145.598526,234.159714 146.256729,232.516571 143.921616,231.529968 
	C141.239777,238.630295 137.547119,245.450821 142.970413,252.976120 
	C143.832733,247.457108 144.699844,241.907547 145.670761,235.548660 
M144.186035,287.991547 
	C144.013046,290.498383 144.013062,290.498383 148.948990,295.244995 
	C153.274261,299.404419 153.835373,299.313232 157.136475,293.691528 
	C154.187683,292.627045 151.373672,291.385101 149.123123,289.107758 
	C147.993561,287.964783 146.574310,286.906769 144.186035,287.991547 
M169.945663,224.807709 
	C168.384964,224.540283 166.824280,224.272842 163.750290,223.746094 
	C167.858856,226.734009 168.238083,231.247726 172.712021,232.137955 
	C170.436981,230.294861 171.019119,227.631805 169.945663,224.807709 
M161.285233,136.040848 
	C163.701035,135.540451 164.119278,133.066940 166.225006,131.773834 
	C160.371582,130.658539 159.797073,131.159119 161.285233,136.040848 
M140.272171,273.571686 
	C140.736633,269.054138 141.201096,264.536560 141.665558,260.019012 
	C140.006638,264.730072 139.647797,269.618164 139.338974,274.508575 
	C139.307434,275.007935 139.686584,275.045288 139.935837,274.578644 
	C140.012756,274.434631 140.057022,274.273193 140.272171,273.571686 
z"/>
<path fill="#000000" opacity="1.000000" stroke="none" 
	d="
M416.344177,278.296387 
	C415.763916,285.578003 416.286285,292.246155 419.779572,298.589417 
	C413.295685,298.805023 407.670624,293.190399 407.729919,286.875702 
	C407.864807,272.515137 410.103119,258.399841 413.179901,244.403641 
	C413.532043,242.801788 413.869171,241.196640 414.374176,238.842972 
	C408.565277,245.544952 402.562653,250.980011 396.458862,256.323151 
	C388.279114,263.483582 379.261017,266.114929 368.780548,262.097931 
	C358.315002,258.086609 352.712921,250.290039 350.616058,239.485977 
	C348.238373,227.234802 351.172089,215.611832 354.777069,204.174164 
	C366.735992,166.231812 384.322510,131.366653 412.166229,102.390839 
	C420.583557,93.631264 430.406891,86.807594 442.590149,84.147667 
	C452.041046,82.084305 459.537628,85.730125 462.439789,93.834267 
	C462.018951,94.011574 461.456299,94.465721 461.185272,94.331398 
	C451.916321,89.737938 443.961121,93.829842 436.328979,98.408501 
	C423.865204,105.885757 413.997070,116.279404 405.173981,127.672989 
	C385.253967,153.396500 370.263092,181.609695 362.968781,213.508484 
	C360.901459,222.549316 359.331970,231.725677 361.224121,241.181046 
	C363.947144,254.788544 375.076324,260.158691 387.085754,252.980591 
	C398.426147,246.202377 406.522552,235.912613 415.158203,226.195023 
	C421.059601,219.554260 422.346832,210.972260 426.600525,202.610138 
	C415.523987,205.095749 405.946625,208.949310 396.592651,213.495346 
	C394.625397,214.451431 392.263641,217.513870 390.297455,213.923294 
	C388.442108,210.535126 390.615295,208.394379 393.657013,206.862747 
	C403.992279,201.658463 415.046539,198.552414 426.146027,195.561539 
	C428.534943,194.917831 431.004913,194.562363 432.602020,192.213074 
	C433.726624,190.558868 435.619385,189.998047 437.514191,190.576477 
	C446.044189,193.180420 454.279083,189.094131 462.722534,189.555267 
	C465.980347,189.733170 465.921722,186.587402 466.534302,184.512222 
	C472.472961,164.394440 478.652313,144.354385 485.568817,124.548187 
	C490.894165,109.298386 496.234802,94.051910 503.196503,79.442558 
	C504.126282,77.491348 505.147552,75.566185 506.315674,73.750740 
	C507.655487,71.668518 508.998108,69.154350 512.127991,70.125717 
	C515.495789,71.170929 519.273254,71.923027 520.266174,76.996422 
	C511.943817,76.647179 509.776459,83.007675 507.183044,88.667084 
	C492.562073,120.573380 482.525848,154.089371 473.890167,187.960281 
	C472.367798,193.931381 470.091614,199.640945 468.670807,205.625320 
	C464.749359,222.142319 460.851837,238.660583 458.586639,255.495361 
	C457.969452,260.081940 458.366089,264.807281 458.335815,269.469177 
	C458.325836,271.004517 458.511139,272.639618 460.142395,273.266632 
	C461.840179,273.919189 462.939728,272.536621 463.962158,271.496063 
	C469.495880,265.864166 473.577301,259.149536 477.768707,252.545166 
	C486.342804,239.034988 494.143860,225.062408 501.587860,210.912216 
	C504.276245,205.801865 505.660919,200.019989 507.859772,194.634064 
	C510.454315,188.278915 513.781128,182.288986 518.437317,177.197495 
	C524.432678,170.641632 534.418884,171.294083 539.678833,178.458527 
	C540.423218,179.472366 541.506653,180.514267 540.482117,182.286667 
	C540.000916,182.286667 539.157776,182.551498 538.801208,182.246841 
	C533.695740,177.884506 529.986633,180.927765 526.355286,184.496841 
	C518.843811,191.879333 513.181763,200.358643 510.804901,210.777542 
	C510.658752,211.418167 510.561615,212.081528 510.550598,212.736145 
	C510.545746,213.026962 510.812103,213.322311 511.015778,213.739380 
	C513.575500,214.531372 514.881897,212.426331 516.388977,211.105652 
	C527.225037,201.609497 535.841736,190.115738 545.000977,179.111389 
	C545.959656,177.959595 546.883789,176.775238 547.899414,175.675659 
	C549.464233,173.981430 551.314575,172.868271 553.669983,173.910294 
	C556.204102,175.031387 557.726990,177.069427 557.239746,179.862625 
	C556.642273,183.287552 555.749329,186.679001 554.738892,190.010544 
	C551.406189,200.998520 547.597961,211.844940 544.990479,223.047134 
	C544.802063,223.856949 544.451050,224.657806 544.425171,225.470779 
	C544.364197,227.390350 543.304016,229.773758 545.364929,231.016510 
	C547.401794,232.244720 549.219055,230.495346 550.694214,229.291763 
	C563.549255,218.802856 574.853210,206.626114 584.399231,193.257355 
	C589.282532,186.418472 592.300476,177.663788 593.384888,168.718307 
	C593.954407,164.020401 596.873047,160.114182 599.558289,156.305466 
	C601.070679,154.160248 603.110962,155.031509 604.901489,156.115845 
	C607.166809,157.487686 608.149170,159.453522 607.126160,162.054169 
	C605.236816,166.857117 603.215698,171.608963 601.372070,176.429001 
	C593.997681,195.708679 586.451477,214.930984 581.001221,234.880203 
	C580.402649,237.071289 580.039917,239.326813 579.382568,242.425888 
	C582.468384,240.554199 583.532104,238.236328 584.740417,236.178314 
	C595.198242,218.366272 605.521423,200.475098 615.998840,182.674713 
	C619.463440,176.788620 623.257385,171.088959 627.962891,166.084885 
	C630.420715,163.471054 633.160767,160.870712 637.061768,162.965240 
	C641.015625,165.088135 641.565308,169.033157 640.905640,172.968964 
	C639.473816,181.512085 636.917786,189.791428 634.595886,198.126007 
	C633.149536,203.317917 631.317749,208.462616 630.900330,215.281509 
	C636.752380,209.655884 640.242188,203.820541 644.099365,198.304367 
	C648.202576,192.436569 651.975464,186.335999 656.911865,181.084641 
	C659.663330,178.157562 662.756348,176.661682 666.726257,178.393829 
	C670.506104,180.043045 671.386536,183.241394 671.337646,187.014725 
	C671.224426,195.765991 668.176636,203.986710 666.818787,212.511703 
	C666.478149,214.650406 665.944885,216.735596 666.884644,219.086380 
	C669.648438,219.293610 671.460754,217.472519 673.322327,215.943710 
	C680.819458,209.786652 687.250122,202.565445 693.617798,195.295013 
	C695.624084,193.004211 697.020630,190.428955 696.944092,187.176926 
	C696.882202,184.551147 698.477356,182.477783 699.889038,180.417389 
	C701.898499,177.484299 704.320251,178.072464 706.819214,179.710648 
	C709.483337,181.457092 709.603516,183.463898 707.759705,186.009262 
	C704.035217,191.151016 700.910095,196.662094 698.527039,202.554901 
	C697.850037,204.229065 697.348145,206.044785 697.171570,207.835571 
	C696.827209,211.328506 698.392029,212.572189 701.656677,210.917664 
	C704.506287,209.473511 706.865784,207.349731 709.168030,205.160294 
	C721.777405,193.168823 731.725159,178.881454 743.115356,165.838852 
	C743.881836,164.961105 744.622742,164.058456 745.427490,163.217102 
	C747.445129,161.107666 749.661865,159.919907 752.463501,161.879227 
	C755.298340,163.861755 754.125610,166.216141 753.040222,168.519623 
	C744.662415,186.298691 736.288757,204.078979 730.117737,222.789658 
	C728.761780,226.900864 727.375549,231.010742 727.147217,235.384262 
	C726.981201,238.564346 726.774902,241.743134 729.677246,244.087372 
	C730.577332,244.814331 731.320984,245.915604 730.564758,247.157150 
	C729.719055,248.545731 728.313660,248.349976 726.980347,248.077057 
	C722.291443,247.117233 718.132202,242.064682 717.713806,236.855728 
	C717.287781,231.551453 719.064392,226.666168 720.670715,221.772430 
	C725.201599,207.969009 731.613770,194.953186 737.559021,181.742691 
	C737.878906,181.031876 738.129517,180.289902 737.769043,179.132690 
	C732.934082,184.730255 728.111877,190.338867 723.260925,195.922485 
	C717.686646,202.338699 712.013550,208.665588 705.523987,214.189468 
	C702.761414,216.540970 700.015381,219.714798 695.907288,217.741180 
	C692.125061,215.924133 690.598022,212.416168 690.766602,208.205994 
	C690.790405,207.610992 690.558228,207.005737 690.412109,206.234344 
	C687.616577,207.185089 686.445740,209.550827 684.698730,211.220306 
	C681.087219,214.671402 677.729004,218.387192 673.652588,221.336456 
	C670.169800,223.856232 666.661499,225.063080 662.617859,222.440735 
	C658.591492,219.829620 656.791748,216.363083 657.248840,211.495850 
	C657.984619,203.661957 660.316650,196.183655 661.988953,188.558807 
	C662.342590,186.945877 663.043213,185.391953 662.232605,182.864090 
	C660.172668,185.451187 658.329224,187.630585 656.633484,189.919449 
	C649.199890,199.953659 643.029480,210.895386 634.769836,220.337936 
	C630.395142,225.339188 625.840820,224.792664 622.864624,218.753372 
	C620.529785,214.015320 620.862549,209.037048 622.315369,204.153046 
	C624.925354,195.379150 627.713867,186.658539 630.403198,177.908066 
	C631.224609,175.235275 631.965210,172.537659 633.079285,168.689255 
	C628.430664,172.248566 626.172791,176.224060 623.765869,179.986542 
	C611.010986,199.924362 599.921936,220.838867 588.008057,241.270660 
	C587.001343,242.997162 586.033813,244.751129 584.938843,246.420670 
	C581.732910,251.308746 577.747986,251.417664 574.379578,246.602844 
	C572.080078,243.315903 571.525208,239.577576 572.188477,235.623535 
	C573.899231,225.424576 577.215759,215.671768 580.802551,204.869141 
	C573.742615,212.697983 567.396545,219.792648 560.976196,226.819595 
	C559.068481,228.907578 556.971008,230.824615 554.927612,232.785751 
	C551.408936,236.162872 547.541382,237.910782 542.759399,235.321106 
	C538.166687,232.833939 535.574219,227.619965 536.281494,222.334366 
	C537.684814,211.847305 541.723999,202.117554 544.914551,192.143875 
	C545.717773,189.632965 546.555115,187.132996 547.807800,183.313965 
	C540.371887,190.083206 535.400085,197.299194 529.500122,203.656143 
	C525.762146,207.683670 522.099243,211.798325 518.135010,215.594315 
	C512.001526,221.467377 510.581238,221.511810 503.168976,216.988846 
	C499.428131,223.847641 495.751465,230.724396 491.948914,237.530823 
	C485.204285,249.603500 478.467712,261.686584 469.918915,272.628998 
	C466.623749,276.846741 462.728394,279.553711 457.007996,277.953003 
	C450.544678,276.144409 447.375885,270.954620 448.170624,263.727264 
	C450.141266,245.806473 454.684021,228.430359 459.183472,211.042709 
	C460.551514,205.755905 461.966858,200.481308 463.513855,194.620178 
	C456.334320,194.872955 449.919373,196.185608 443.606079,198.034927 
	C442.061798,198.487274 441.594604,200.151413 440.881226,201.464935 
	C437.618286,207.472565 433.838074,213.153564 430.131073,218.893539 
	C424.771240,227.192886 423.824402,237.041840 421.496216,246.352768 
	C418.914581,256.677551 417.504730,267.244598 416.344177,278.296387 
z"/>
<path fill="#000000" opacity="1.000000" stroke="none" 
	d="
M804.270752,193.569046 
	C800.381287,184.628860 798.455505,184.358932 792.236694,191.819153 
	C783.877197,201.847107 777.298950,213.033295 771.213196,224.532806 
	C768.719788,229.244202 766.547729,229.272659 763.431763,224.805603 
	C761.118835,221.489731 761.140442,218.007904 762.318176,214.324341 
	C767.833191,197.076721 773.607727,179.902313 777.101074,162.126785 
	C783.062683,162.159882 786.257751,166.802521 784.363403,172.439575 
	C780.548157,183.792435 776.717957,195.140228 772.903931,206.493500 
	C772.707092,207.079468 772.605042,207.697266 772.217529,209.296310 
	C777.802368,202.037094 782.706421,195.570282 787.717102,189.187164 
	C790.398621,185.771179 793.448730,182.697937 797.162842,180.362015 
	C800.904846,178.008530 803.896851,178.896088 805.849670,182.707047 
	C806.977234,184.907394 807.653870,187.345474 808.464233,189.700394 
	C810.394409,195.309616 811.824463,195.905411 817.311462,193.300751 
	C823.384521,190.417908 828.554382,186.203552 833.839905,182.149933 
	C835.198669,181.107819 836.389893,179.350616 838.625549,180.346741 
	C839.813660,182.625076 838.003418,183.782181 836.744873,184.900696 
	C832.019104,189.100723 827.340759,193.381165 822.345337,197.244431 
	C814.347595,203.429535 809.923462,202.478760 804.270752,193.569046 
z"/>
<path fill="#000000" opacity="1.000000" stroke="none" 
	d="
M873.682495,173.385406 
	C877.677917,171.418091 881.401611,170.159027 885.535400,171.579132 
	C888.276184,172.520630 890.229248,174.244156 890.678650,177.135559 
	C891.656189,183.424683 887.945312,187.538971 883.551086,191.026321 
	C879.764526,194.031342 875.632080,194.222244 871.623413,191.111740 
	C870.999207,190.627380 870.269409,190.279160 869.215332,189.642715 
	C863.439453,198.919128 859.632935,208.485519 860.367676,219.375778 
	C860.771423,225.360992 865.737610,227.672485 871.817017,224.738541 
	C878.012695,221.748489 883.306824,217.425858 888.455017,212.914734 
	C898.114685,204.450287 906.904785,195.129120 915.570862,185.676315 
	C916.784973,184.351974 918.063660,181.635757 920.266479,183.585724 
	C922.307190,185.392319 920.269348,187.296967 918.948730,188.668579 
	C907.060181,201.016129 895.459778,213.693542 881.573669,223.899307 
	C877.181702,227.127151 872.606079,230.607986 866.675781,230.021469 
	C857.062927,229.070724 850.910400,221.714905 852.029175,211.462906 
	C853.722412,195.947205 860.124084,182.760132 873.682495,173.385406 
M872.558960,187.481567 
	C876.081360,190.100021 878.573486,187.438263 880.815430,185.494232 
	C883.583069,183.094299 886.627686,180.475876 885.253784,175.959412 
	C879.166992,176.827103 873.518311,181.662460 872.558960,187.481567 
z"/>
<path fill="#000000" opacity="1.000000" stroke="none" 
	d="
M833.525513,96.675949 
	C833.954285,95.175682 834.344360,94.073799 834.610046,92.942719 
	C835.054016,91.053070 835.571533,89.129242 838.100220,89.783699 
	C840.581421,90.425858 841.706482,92.240280 840.931152,94.746712 
	C839.455627,99.516144 837.806885,104.231956 836.231689,108.970558 
	C834.046387,115.543968 832.531067,122.285873 831.781677,129.732727 
	C826.478882,127.909752 826.233215,124.237106 827.077881,120.677231 
	C828.958923,112.749077 831.285706,104.926689 833.525513,96.675949 
z"/>
</svg>