<?xml version="1.0" standalone="no"?>
<!DOCTYPE svg PUBLIC "-//W3C//DTD SVG 20010904//EN"
 "http://www.w3.org/TR/2001/REC-SVG-20010904/DTD/svg10.dtd">
<svg version="1.0" xmlns="http://www.w3.org/2000/svg"
 width="789.000000pt" height="819.000000pt" viewBox="0 0 789.000000 819.000000"
 preserveAspectRatio="xMidYMid meet">

<g transform="translate(0.000000,819.000000) scale(0.100000,-0.100000)"
fill="#000000" stroke="none">
<path d="M2677 6872 l-1257 -1257 1260 -1260 1260 -1260 1260 1260 1260 1260
-1257 1257 c-692 692 -1260 1258 -1263 1258 -3 0 -571 -566 -1263 -1258z
m1161 188 l-3 -92 -73 -23 c-90 -28 -132 -60 -157 -117 -10 -23 -20 -45 -21
-47 -2 -2 -28 18 -59 43 -31 25 -60 46 -63 46 -4 0 -16 7 -27 16 -18 14 -9 24
190 224 l210 210 3 -84 c1 -47 1 -126 0 -176z m554 -101 c-13 -13 -262 -109
-282 -109 -13 0 -25 12 -34 34 -8 18 -19 37 -25 40 -7 5 -11 71 -11 204 l0
197 180 -180 c99 -99 176 -183 172 -186z m663 -649 l630 -630 -508 0 c-433 0
-507 2 -507 14 0 8 6 21 13 28 17 17 37 74 29 83 -3 3 -8 18 -9 33 -4 33 -23
93 -33 107 -4 6 -10 21 -13 35 -4 14 -22 42 -42 63 -19 21 -35 42 -35 47 0 5
-6 7 -13 4 -8 -3 -27 23 -52 74 -30 61 -49 86 -81 108 -23 16 -41 31 -39 34 2
3 -11 5 -28 5 -27 0 -33 5 -43 34 -7 22 -13 29 -16 19 -7 -16 -34 -17 -58 -3
-13 8 -13 6 -1 -8 11 -14 11 -18 -5 -23 -11 -3 -32 -11 -47 -16 -36 -14 -42
-6 -28 33 6 18 11 42 11 54 0 12 9 30 20 40 24 21 25 44 6 71 -18 23 -10 64
16 83 24 16 40 55 31 77 -3 8 -17 20 -32 26 -25 9 -24 11 39 41 87 43 136 91
152 150 6 26 12 47 13 47 0 0 284 -283 630 -630z m-1598 494 c-2 -2 -21 1 -43
7 -70 18 -69 17 -49 39 17 19 18 19 56 -12 22 -17 38 -33 36 -34z m81 -12 c18
-14 30 -27 28 -30 -5 -4 -106 66 -106 74 0 7 41 -16 78 -44z m-123 -43 c11 -9
40 -24 64 -32 53 -17 42 -23 -69 -33 -89 -8 -120 -18 -120 -38 0 -23 35 -37
109 -44 l66 -7 -3 -37 c-2 -20 4 -50 13 -67 19 -39 15 -47 -29 -55 -35 -7 -76
-46 -76 -73 0 -22 33 -80 37 -66 2 7 -1 21 -7 33 -16 30 11 70 46 70 21 0 25
-4 19 -17 -15 -37 -17 -95 -6 -117 7 -13 31 -31 54 -42 32 -14 37 -19 23 -22
-10 -2 -40 6 -67 18 -64 31 -89 22 -166 -56 -60 -62 -65 -64 -112 -64 -42 0
-54 -5 -80 -31 l-31 -31 0 -304 c0 -255 3 -310 15 -335 11 -20 13 -35 6 -46
-14 -26 45 -76 79 -67 14 4 34 6 45 6 11 -1 28 -2 38 -3 9 0 17 -3 17 -7 -1
-11 -30 -47 -30 -36 0 5 -5 2 -10 -6 -8 -13 -10 -13 -10 2 0 28 -16 29 -54 3
-44 -30 -46 -30 -46 -7 0 13 -2 14 -9 3 -6 -9 -11 -10 -15 -2 -18 28 -26 4
-26 -75 0 -64 3 -85 13 -81 6 2 17 -9 24 -25 7 -15 19 -28 27 -28 8 0 29 -18
46 -40 17 -22 39 -40 48 -40 10 0 28 -7 42 -15 65 -38 108 -55 141 -55 40 0
79 -22 60 -34 -6 -4 -9 -11 -6 -16 2 -4 -17 -27 -43 -50 -26 -23 -64 -58 -84
-76 -21 -19 -40 -34 -44 -34 -3 0 -31 -25 -62 -56 l-56 -55 -528 528 -528 528
591 591 591 591 42 -15 c22 -9 50 -23 61 -33z m765 -113 c14 -41 14 -42 -24
-64 -26 -15 -38 -32 -47 -64 -7 -24 -13 -44 -14 -46 -1 -1 -21 16 -44 38 -32
31 -49 40 -75 40 -40 0 -68 -9 -61 -20 7 -11 -66 -4 -100 10 -25 10 -27 13
-12 19 9 3 26 20 36 37 24 40 83 52 135 28 19 -10 44 -14 57 -11 32 8 112 61
99 65 -5 2 -8 8 -5 13 10 14 44 -14 55 -45z m60 29 c0 -11 -24 -55 -30 -55 -9
0 -20 61 -13 73 4 7 43 -9 43 -18z m-727 -106 c-5 -25 -1 -31 31 -50 36 -21
42 -33 30 -63 -9 -22 -34 -20 -34 3 0 10 -8 29 -19 42 -31 40 -42 69 -36 89
10 31 35 13 28 -21z m297 26 c-9 -8 -29 -16 -45 -18 -17 -3 -23 -2 -15 0 8 3
24 12 35 19 26 19 43 18 25 -1z m-167 -12 c-4 -10 -2 -14 4 -10 13 8 23 -15
23 -54 0 -22 6 -32 26 -39 14 -6 27 -10 28 -10 5 0 -10 76 -18 88 -10 16 -9
16 58 -18 32 -17 65 -30 72 -30 7 0 27 -20 44 -45 35 -51 88 -74 135 -58 l27
9 -56 43 c-63 49 -73 63 -23 32 19 -11 38 -17 42 -13 5 4 5 2 1 -5 -3 -6 6
-20 23 -32 l30 -21 19 21 20 21 7 -22 c4 -14 13 -20 27 -18 12 2 23 -3 26 -11
3 -10 0 -12 -12 -8 -10 4 -16 1 -16 -9 0 -8 5 -12 10 -9 15 9 12 -12 -5 -45
-14 -26 -21 -30 -59 -30 -27 0 -48 -6 -56 -15 -11 -13 -7 -15 27 -15 21 0 45
6 52 13 22 22 0 -45 -27 -80 -18 -25 -32 -33 -56 -33 -48 0 -196 81 -196 107
0 7 7 10 16 6 14 -5 16 -1 10 33 -4 21 -7 59 -9 84 -2 38 -6 47 -31 59 -26 13
-29 13 -39 -5 -6 -10 -13 -43 -15 -72 -3 -40 1 -60 18 -87 27 -43 76 -85 100
-85 10 0 32 -12 47 -26 l28 -25 -50 4 c-27 3 -59 8 -69 12 -13 6 -17 5 -13 -2
9 -14 87 -32 154 -35 31 -2 53 -8 53 -14 0 -13 -37 -61 -95 -123 -50 -54 -105
-139 -105 -164 0 -10 -9 -32 -21 -48 l-20 -29 35 -34 c20 -18 36 -39 36 -46 0
-22 -62 -154 -97 -208 -34 -52 -48 -62 -105 -76 -39 -9 -64 19 -76 86 -19 99
-32 243 -34 353 -1 84 -3 102 -9 75 -19 -76 -6 -424 16 -461 11 -17 -6 -9 -50
24 -50 37 -72 82 -86 184 -15 101 -2 205 29 251 101 146 136 202 176 284 25
50 46 97 46 104 0 6 7 14 15 18 8 3 15 14 15 24 0 10 3 22 7 26 4 3 8 12 9 19
1 7 5 20 10 31 6 15 4 17 -13 12 -24 -8 -48 18 -77 83 -18 40 -18 42 -1 61 22
24 26 25 18 3z m-91 -28 c3 -14 1 -25 -3 -25 -5 0 -9 11 -9 25 0 14 2 25 4 25
2 0 6 -11 8 -25z m613 5 c-3 -5 -11 -10 -16 -10 -6 0 -7 5 -4 10 3 6 11 10 16
10 6 0 7 -4 4 -10z m-473 -52 c-9 -9 -12 -7 -12 12 0 19 3 21 12 12 9 -9 9
-15 0 -24z m-62 -29 c0 -6 -4 -7 -10 -4 -5 3 -10 11 -10 16 0 6 5 7 10 4 6 -3
10 -11 10 -16z m-65 -92 c-11 -7 -32 -25 -47 -41 -20 -20 -26 -23 -22 -10 11
32 46 64 68 63 21 0 21 0 1 -12z m65 -117 c0 -5 -2 -10 -4 -10 -3 0 -8 5 -11
10 -3 6 -1 10 4 10 6 0 11 -4 11 -10z m-50 -55 c0 -8 -4 -15 -10 -15 -5 0 -7
7 -4 15 4 8 8 15 10 15 2 0 4 -7 4 -15z m836 -101 c-1 -41 3 -69 10 -75 15
-12 8 -39 -14 -56 -11 -9 -19 -10 -29 -2 -8 7 -13 8 -13 1 0 -5 7 -15 15 -22
22 -18 18 -30 -7 -25 -44 9 -55 -3 -63 -60 -8 -66 -25 -65 -20 1 7 88 15 106
41 101 23 -4 24 -3 15 42 -1 2 -9 -3 -18 -10 -15 -12 -16 -12 -9 6 24 59 45
137 40 150 -4 8 -1 22 6 30 12 14 15 14 30 0 14 -12 17 -30 16 -81z m-873 30
c3 -4 2 -16 -4 -26 -13 -24 -35 -9 -26 16 7 17 19 21 30 10z m-343 -98 c0 -2
-14 -32 -30 -67 l-31 -64 5 54 c6 55 19 81 42 81 8 0 14 -2 14 -4z m846 -46
c0 -11 -6 -20 -13 -20 -11 0 -11 5 -3 20 6 11 12 20 13 20 2 0 3 -9 3 -20z
m-816 -10 c0 -5 -2 -10 -4 -10 -3 0 -8 5 -11 10 -3 6 -1 10 4 10 6 0 11 -4 11
-10z m2 -55 c-2 -14 -8 -25 -12 -25 -4 0 -5 11 -2 25 2 14 8 25 12 25 4 0 5
-11 2 -25z m1050 -45 c-2 -16 -8 -27 -13 -24 -13 8 -11 42 4 47 6 3 12 6 13 6
0 1 -1 -12 -4 -29z m82 -39 c3 -5 -1 -11 -9 -14 -9 -4 -12 -1 -8 9 6 16 10 17
17 5z m-484 -116 c14 -19 14 -19 -2 -6 -10 7 -18 18 -18 24 0 6 1 8 3 6 1 -2
9 -13 17 -24z m-603 -248 l3 -31 -21 23 c-12 12 -27 20 -35 17 -10 -4 -9 3 4
30 16 36 17 36 31 14 8 -12 16 -36 18 -53z m1330 41 c-3 -7 -5 -2 -5 12 0 14
2 19 5 13 2 -7 2 -19 0 -25z m-1167 -51 c0 -16 -18 3 -23 25 -6 22 -5 22 8 4
8 -11 15 -24 15 -29z m1070 23 c0 -5 -2 -10 -4 -10 -3 0 -8 5 -11 10 -3 6 -1
10 4 10 6 0 11 -4 11 -10z m735 -380 c-203 -203 -375 -370 -381 -370 -11 0
-112 46 -158 71 -10 6 -48 19 -85 29 -36 10 -89 27 -118 38 l-52 19 25 37 c29
43 29 50 -5 214 -11 56 -21 127 -21 157 l0 53 68 44 c37 24 78 52 92 61 22 14
79 16 515 16 l490 1 -370 -370z m-1753 328 c-7 -7 -12 -8 -12 -2 0 14 12 26
19 19 2 -3 -1 -11 -7 -17z m-165 -65 c2 -13 -1 -23 -7 -23 -5 0 -10 7 -10 15
0 9 -11 27 -24 40 -24 24 -24 24 -2 27 22 3 35 -16 43 -59z m133 47 c0 -9 46
-105 83 -176 12 -22 40 -67 63 -100 23 -32 51 -79 64 -103 20 -40 20 -43 3
-37 -10 4 -45 16 -78 28 -33 11 -91 37 -130 58 -51 28 -82 38 -113 38 -43 -1
-81 19 -55 29 22 8 2 34 -21 27 -19 -6 -19 -5 4 14 27 23 21 29 -11 12 -15 -8
-19 -7 -19 4 0 9 6 13 14 10 9 -3 26 12 46 40 17 25 37 46 45 46 7 0 17 9 20
20 3 11 11 20 16 20 6 0 19 20 30 45 11 25 24 43 30 40 5 -4 9 -10 9 -15z
m679 -60 c13 -19 13 -20 -13 -7 -14 8 -36 27 -48 43 l-23 29 35 -22 c19 -12
41 -31 49 -43z m290 -204 c1 -19 1 -19 -18 0 -10 11 -14 22 -9 25 6 4 5 15 -2
29 -10 18 -9 24 1 31 11 6 16 -1 21 -29 4 -20 7 -46 7 -56z m-206 -11 c11 -33
23 -85 26 -115 5 -45 9 -54 24 -52 11 2 17 -4 17 -18 0 -11 5 -20 10 -20 6 0
10 -9 10 -21 0 -15 -5 -19 -17 -15 -10 3 -31 8 -46 12 -18 4 -34 19 -46 43
-30 57 -114 124 -157 124 -33 0 -39 13 -14 27 25 13 69 5 122 -21 57 -29 62
-26 54 34 -4 28 -11 53 -15 55 -4 1 -5 17 -2 35 3 23 6 26 9 12 2 -11 13 -47
25 -80z m171 -30 c-4 -8 -10 -12 -15 -9 -11 6 -2 24 11 24 5 0 7 -7 4 -15z
m-208 -10 c9 -8 11 -15 6 -15 -5 0 -15 7 -22 15 -7 8 -9 15 -6 15 4 0 14 -7
22 -15z m234 -65 c0 -5 -5 -10 -11 -10 -5 0 -7 5 -4 10 3 6 8 10 11 10 2 0 4
-4 4 -10z m-33 -22 c-3 -8 -6 -5 -6 6 -1 11 2 17 5 13 3 -3 4 -12 1 -19z
m-200 -56 c10 -21 34 -51 53 -66 96 -74 192 -171 210 -211 11 -24 20 -47 20
-50 0 -4 9 -18 20 -32 25 -32 26 -50 3 -32 -15 12 -15 10 1 -16 l20 -30 -32
27 c-17 14 -54 53 -82 85 -50 57 -158 153 -172 153 -13 0 -9 -18 5 -23 6 -3 0
-6 -14 -6 -15 -1 -38 8 -53 20 -14 11 -26 16 -26 11 0 -31 89 -274 146 -399 8
-17 14 -39 14 -49 0 -9 12 -42 26 -72 l26 -55 -93 -94 c-52 -51 -99 -91 -106
-89 -6 3 -14 -2 -17 -10 -4 -10 -2 -13 7 -8 6 4 1 -5 -12 -19 -14 -15 -30 -27
-38 -27 -7 0 -13 -6 -13 -13 0 -7 -32 -44 -70 -82 l-70 -70 -110 110 c-88 88
-109 114 -104 130 6 17 5 18 -8 7 -12 -10 -17 -10 -26 1 -10 12 -9 39 12 242
3 28 8 77 10 110 3 33 7 83 10 110 9 76 0 45 -34 -120 -18 -82 -36 -157 -42
-165 -6 -11 -7 -6 -3 15 3 17 7 41 9 55 2 14 7 43 12 65 11 53 11 55 13 58 2
1 4 19 7 39 2 21 8 58 13 83 13 68 -4 63 -29 -8 -38 -107 -42 -117 -50 -117
-4 0 -6 10 -5 23 1 12 4 22 5 22 1 0 4 9 6 20 3 21 22 78 80 250 59 173 57
163 39 181 -23 24 -14 37 36 52 24 7 52 18 63 23 12 7 16 7 12 0 -4 -5 -2 -12
4 -16 5 -3 10 -2 10 3 0 10 36 9 46 0 3 -4 13 -4 22 -1 13 4 14 3 3 -5 -7 -5
-21 -7 -31 -5 -35 9 -58 -14 -65 -65 -4 -26 -11 -60 -16 -77 -9 -30 -17 -84
-24 -165 -3 -25 -11 -88 -20 -140 -8 -52 -19 -135 -25 -185 -6 -49 -15 -109
-20 -133 -6 -23 -10 -64 -9 -90 l1 -47 16 48 c17 46 18 47 36 30 10 -10 15
-12 11 -4 -10 17 4 10 55 -28 19 -14 43 -27 54 -28 28 -5 32 -11 18 -33 -11
-17 -10 -20 9 -20 11 0 17 5 14 10 -3 6 0 10 7 10 8 0 19 15 26 33 6 18 20 38
29 44 92 64 123 77 123 53 0 -5 7 -10 15 -10 7 0 19 -8 24 -17 10 -17 10 -17
11 0 0 9 5 17 10 17 18 0 10 79 -25 243 -20 89 -42 196 -51 237 -9 41 -20 79
-25 85 -5 5 -9 18 -9 30 -1 11 -6 30 -13 43 l-13 23 -12 -25 c-10 -23 -14 -24
-44 -14 -20 7 -27 13 -18 16 17 6 45 32 34 32 -3 0 -1 7 6 15 11 13 15 13 21
3 7 -10 9 -10 9 -1 0 7 -15 30 -33 50 -50 57 -41 71 43 67 68 -2 70 -2 70 22
0 21 3 23 19 14 11 -5 28 -27 38 -48z m228 24 c-15 -23 -15 -25 2 -29 16 -4
15 -6 -5 -12 -15 -5 -21 -13 -18 -22 5 -11 0 -13 -17 -8 -12 4 -29 13 -37 21
-12 12 -11 14 13 14 15 0 28 5 28 10 3 20 4 25 12 38 5 6 15 12 23 12 12 0 12
-3 -1 -24z m44 -50 c-9 -8 -10 -7 -5 7 3 10 7 28 7 40 2 16 3 14 6 -7 3 -16
-1 -34 -8 -40z m-755 22 c6 -4 7 -10 4 -14 -11 -10 -40 24 -32 38 6 9 9 8 12
-2 3 -8 10 -18 16 -22z m704 -83 c10 -10 -20 -25 -50 -25 -16 0 -28 2 -28 4 0
2 -3 12 -7 22 -6 15 -1 16 36 11 24 -3 46 -8 49 -12z m-866 -192 c-11 -21 -41
-82 -66 -135 -26 -54 -51 -100 -57 -103 -5 -4 -9 -12 -9 -20 0 -8 -5 -26 -10
-41 l-11 -27 -29 28 c-17 16 -30 31 -30 35 0 3 18 30 41 60 47 63 66 96 50 86
-6 -4 -11 -2 -11 3 0 6 5 11 10 11 6 0 9 3 8 8 -5 20 16 53 38 58 13 3 38 24
55 46 38 47 48 43 21 -9z m863 -153 c3 -5 1 -10 -4 -10 -6 0 -11 5 -11 10 0 6
2 10 4 10 3 0 8 -4 11 -10z m-791 -152 c-4 -13 -6 -25 -5 -27 2 -2 -2 -7 -8
-10 -6 -4 -12 -20 -13 -37 -2 -30 -14 -54 -29 -54 -10 0 11 70 36 122 20 41
31 44 19 6z m31 -225 c-3 -19 -9 -33 -12 -30 -3 3 -2 25 2 49 5 24 10 37 12
30 3 -7 2 -29 -2 -49z"/>
<path d="M3110 6120 c0 -5 7 -7 15 -4 8 4 15 8 15 10 0 2 -7 4 -15 4 -8 0 -15
-4 -15 -10z"/>
<path d="M3331 4744 c0 -11 3 -14 6 -6 3 7 2 16 -1 19 -3 4 -6 -2 -5 -13z"/>
<path d="M3280 4699 c0 -5 5 -7 10 -4 6 3 10 8 10 11 0 2 -4 4 -10 4 -5 0 -10
-5 -10 -11z"/>
<path d="M3935 6575 c-34 -15 -28 -20 8 -6 19 7 35 5 63 -10 43 -22 54 -23 54
-8 0 11 -60 39 -82 39 -7 -1 -26 -7 -43 -15z"/>
<path d="M3850 6406 c0 -31 6 -34 13 -6 3 11 1 23 -4 26 -5 3 -9 -6 -9 -20z"/>
<path d="M4070 6360 c0 -5 5 -10 11 -10 5 0 7 5 4 10 -3 6 -8 10 -11 10 -2 0
-4 -4 -4 -10z"/>
<path d="M4040 6230 c0 -6 7 -10 15 -10 8 0 15 2 15 4 0 2 -7 6 -15 10 -8 3
-15 1 -15 -4z"/>
<path d="M3746 6151 c-4 -7 -5 -15 -2 -18 9 -9 19 4 14 18 -4 11 -6 11 -12 0z"/>
<path d="M3662 6111 c4 -13 18 -16 19 -4 0 4 -5 9 -11 12 -7 2 -11 -2 -8 -8z"/>
<path d="M3597 6103 c-4 -3 -7 -11 -7 -17 0 -6 5 -5 12 2 6 6 9 14 7 17 -3 3
-9 2 -12 -2z"/>
<path d="M4276 4228 c3 -4 9 -8 15 -8 5 0 9 4 9 8 0 5 -7 9 -15 9 -8 0 -12 -4
-9 -9z"/>
<path d="M3850 4079 c0 -5 5 -7 10 -4 6 3 10 8 10 11 0 2 -4 4 -10 4 -5 0 -10
-5 -10 -11z"/>
<path d="M4137 4073 c3 -7 6 -13 8 -13 2 0 5 6 8 13 3 8 -1 14 -8 14 -7 0 -11
-6 -8 -14z"/>
<path d="M3781 4058 c-5 -13 -7 -26 -4 -30 7 -12 41 24 36 38 -8 21 -23 17
-32 -8z"/>
<path d="M4060 3978 c0 -19 2 -20 10 -8 13 19 13 30 0 30 -5 0 -10 -10 -10
-22z"/>
<path d="M3447 4613 c-4 -3 -7 -11 -7 -17 0 -6 5 -5 12 2 6 6 9 14 7 17 -3 3
-9 2 -12 -2z"/>
<path d="M2654 2961 c-71 -108 -227 -542 -382 -1061 l-20 -65 -93 -13 c-52 -7
-119 -10 -150 -7 -47 5 -58 2 -73 -14 -10 -11 -32 -23 -50 -26 -63 -14 -302
-95 -333 -115 -32 -19 -39 -34 -27 -63 4 -12 23 -7 97 28 80 38 257 100 257
90 0 -2 -13 -37 -30 -78 -16 -42 -30 -80 -30 -85 0 -18 -126 -166 -207 -243
-130 -124 -235 -159 -312 -102 -50 38 -65 79 -69 189 -7 175 48 376 168 622
239 490 585 820 795 758 30 -9 30 -9 14 15 -9 13 -31 35 -50 47 -71 49 -208
12 -348 -93 -221 -167 -489 -607 -620 -1018 -54 -170 -69 -273 -52 -364 29
-160 123 -243 276 -243 78 0 125 28 253 153 50 50 92 88 92 84 0 -3 -7 -39
-15 -79 -45 -212 -58 -409 -29 -454 16 -24 72 -60 80 -51 2 2 -3 20 -11 40
-33 78 -8 315 60 574 30 115 42 142 90 215 31 46 63 99 72 119 15 35 19 37 97
53 109 22 139 21 132 -1 -65 -216 -146 -588 -146 -675 0 -68 21 -99 79 -117
34 -10 46 -9 71 4 49 25 152 182 307 467 l75 138 20 -25 c43 -55 93 -20 290
207 66 76 123 137 125 134 3 -2 -18 -73 -46 -156 -80 -237 -82 -296 -16 -348
59 -46 102 -20 254 154 57 65 112 128 122 138 13 14 7 -13 -22 -105 -27 -84
-42 -150 -46 -206 -5 -78 -5 -82 20 -107 33 -33 60 -33 82 0 9 14 87 148 172
297 178 311 278 467 298 467 8 0 15 -3 15 -6 0 -3 -20 -67 -45 -142 -62 -191
-76 -258 -65 -307 8 -38 48 -85 72 -85 22 0 72 64 252 325 81 118 93 113 57
-26 -51 -191 -46 -250 23 -283 33 -16 38 -16 68 0 18 9 73 56 121 105 l88 89
-7 -48 c-5 -39 -2 -52 16 -74 35 -46 62 -37 147 45 77 73 215 228 291 325 23
30 42 52 42 49 0 -2 -33 -76 -74 -163 -108 -234 -166 -391 -166 -452 0 -57 55
-122 105 -122 21 0 19 17 -5 47 -11 14 -20 38 -20 52 0 72 67 258 190 528 69
152 81 185 70 198 -31 38 -50 21 -232 -200 -162 -197 -276 -300 -309 -279 -28
17 1 108 71 218 41 65 42 68 25 86 -10 11 -26 20 -37 20 -22 0 -58 -55 -58
-90 0 -39 -32 -82 -144 -195 -96 -95 -145 -129 -164 -111 -3 4 6 66 21 139 42
204 36 244 -36 262 -24 7 -34 2 -70 -37 -23 -24 -75 -93 -116 -153 -74 -109
-127 -175 -143 -175 -10 0 -8 10 49 220 54 197 59 253 24 281 -33 27 -46 24
-89 -19 -54 -54 -128 -169 -288 -450 -76 -134 -152 -258 -167 -275 l-28 -32 5
50 c8 61 91 309 186 556 90 229 88 223 56 244 -14 9 -30 14 -36 10 -16 -10
-70 -122 -70 -145 0 -12 -18 -68 -40 -125 -38 -95 -48 -110 -143 -216 -190
-212 -271 -279 -300 -250 -15 15 1 89 68 309 30 97 55 186 55 198 0 31 -35 59
-59 48 -10 -5 -46 -44 -80 -86 -93 -117 -226 -263 -261 -288 -45 -32 -61 -22
-49 31 22 95 130 248 201 285 27 14 32 14 55 -1 29 -20 39 -14 24 13 -12 22
-87 62 -115 62 -69 0 -162 -130 -220 -306 -21 -65 -195 -375 -291 -519 -115
-172 -156 -200 -170 -115 -11 67 18 266 75 506 45 189 50 204 62 201 7 -1 12
20 14 58 3 107 217 767 314 970 51 107 74 135 111 135 43 0 36 25 -14 49 -24
12 -46 21 -50 21 -4 0 -18 -18 -33 -39z"/>
<path d="M5846 2758 c-8 -29 -26 -94 -41 -145 -29 -102 -31 -176 -4 -181 13
-2 17 9 22 50 3 29 19 96 37 148 52 157 50 149 34 165 -24 24 -32 18 -48 -37z"/>
<path d="M5262 1982 c-17 -70 -52 -190 -77 -267 -24 -77 -45 -153 -45 -168 0
-31 34 -87 53 -87 7 0 27 30 46 66 81 157 232 354 271 354 6 0 20 -21 31 -47
44 -104 97 -126 172 -74 64 43 182 157 171 163 -5 4 -36 -14 -69 -39 -79 -60
-155 -103 -181 -103 -27 0 -39 15 -53 65 -15 58 -37 85 -69 85 -35 0 -136
-104 -222 -227 -35 -51 -65 -91 -68 -89 -3 4 96 303 130 392 10 27 9 36 -5 58
-9 14 -25 30 -35 35 -17 9 -21 -2 -50 -117z"/>
<path d="M6229 1990 c-94 -50 -197 -226 -205 -352 -6 -86 11 -129 66 -166 56
-38 120 -28 206 33 88 62 384 353 384 377 0 10 -3 18 -6 18 -4 0 -54 -50 -113
-112 -183 -192 -313 -297 -388 -313 -27 -5 -37 -2 -58 19 -20 21 -25 35 -25
79 0 66 22 144 63 220 30 57 30 57 51 39 12 -11 29 -22 39 -25 45 -16 130 54
143 119 9 47 -26 84 -79 84 -23 -1 -58 -10 -78 -20z m121 -32 c0 -49 -70 -118
-118 -118 -54 0 -25 62 53 114 48 32 65 33 65 4z"/>
<path d="M2310 895 c0 -13 212 -15 1845 -15 1633 0 1845 2 1845 15 0 13 -212
15 -1845 15 -1633 0 -1845 -2 -1845 -15z"/>
<path d="M4530 828 c0 -19 21 -48 35 -48 14 0 35 29 35 48 0 6 -16 10 -35 10
-19 0 -35 -4 -35 -10z"/>
<path d="M4935 793 c-6 -47 -7 -48 -42 -49 -63 -1 -96 -77 -57 -132 14 -20 23
-23 71 -20 l55 3 2 123 c1 87 -2 122 -10 122 -7 0 -15 -21 -19 -47z m-7 -126
l3 -48 -38 3 c-33 3 -38 6 -41 31 -4 35 24 69 52 65 17 -2 22 -11 24 -51z"/>
<path d="M2484 817 c-7 -20 14 -219 25 -230 15 -15 29 0 59 60 l28 55 38 -62
c21 -33 43 -59 49 -57 8 2 13 44 15 125 2 104 0 122 -13 122 -12 0 -15 -15
-15 -80 0 -44 -3 -80 -7 -80 -5 0 -20 21 -35 45 -15 25 -31 45 -35 45 -4 0
-19 -20 -32 -45 -13 -25 -27 -45 -32 -45 -4 0 -9 35 -11 77 -2 50 -7 78 -15
81 -7 2 -15 -3 -19 -11z"/>
<path d="M2761 807 c-12 -31 -15 -147 -5 -196 10 -46 29 -32 29 21 1 47 17 78
41 78 15 0 22 -24 26 -85 4 -58 22 -49 26 13 4 75 -17 106 -65 99 l-35 -6 5
37 c8 50 -8 77 -22 39z"/>
<path d="M3530 810 c-46 -46 -14 -120 51 -120 34 0 44 -25 23 -57 -11 -18 -21
-23 -37 -19 -12 3 -32 9 -44 12 -17 5 -23 2 -23 -9 0 -10 15 -21 39 -28 48
-14 91 3 105 43 16 44 -5 76 -59 89 -37 9 -45 16 -45 34 0 36 25 51 64 37 41
-15 46 -15 46 1 0 17 -42 37 -75 37 -14 0 -34 -9 -45 -20z"/>
<path d="M3707 813 c-4 -3 -7 -14 -7 -24 0 -9 -6 -19 -12 -22 -10 -3 -10 -7
-1 -18 7 -9 11 -39 10 -71 -2 -57 18 -98 49 -98 21 0 44 30 44 57 0 31 -24 26
-28 -6 -7 -46 -27 -13 -30 48 -3 56 -1 63 18 68 26 7 26 23 0 30 -11 3 -20 14
-20 24 0 19 -11 25 -23 12z"/>
<path d="M4027 814 c-11 -11 -8 -180 3 -210 18 -46 25 -16 22 94 -4 102 -10
131 -25 116z"/>
<path d="M4401 807 c-6 -8 -14 -29 -17 -48 -4 -19 -11 -40 -17 -47 -7 -9 -7
-16 1 -24 7 -7 12 -31 12 -54 0 -39 19 -72 33 -58 3 4 4 26 0 50 -3 27 -1 49
6 58 8 10 9 16 1 21 -12 8 -13 55 -1 74 12 19 28 6 36 -29 4 -17 13 -30 21
-30 17 0 17 7 3 49 -16 45 -55 64 -78 38z"/>
<path d="M2942 727 c-51 -54 -8 -157 60 -143 17 3 37 11 45 18 22 18 0 29 -34
16 -25 -9 -35 -9 -47 1 -31 26 -19 40 37 43 44 3 52 6 55 24 4 26 -40 64 -73
64 -12 0 -31 -10 -43 -23z m78 -22 c11 -13 7 -15 -24 -15 -35 0 -49 13 -23 23
22 9 34 7 47 -8z"/>
<path d="M3105 673 c4 -43 9 -81 12 -86 12 -19 23 9 23 57 0 35 5 58 15 66 12
10 15 7 21 -14 9 -37 26 -32 22 7 -3 30 -5 32 -40 31 -21 -1 -38 3 -38 7 0 5
-5 9 -11 9 -8 0 -9 -23 -4 -77z"/>
<path d="M3263 728 c-11 -13 -24 -33 -27 -45 -10 -32 21 -92 50 -99 31 -8 84
14 84 33 0 11 -5 13 -17 8 -39 -16 -54 -17 -68 -5 -29 24 -18 40 29 40 52 0
73 18 56 49 -23 44 -75 53 -107 19z m75 -25 c2 -9 -7 -13 -27 -13 -31 0 -42
14 -18 23 19 8 40 3 45 -10z"/>
<path d="M3836 743 c-3 -3 -6 -23 -6 -43 0 -26 7 -43 25 -60 23 -21 29 -23 55
-13 30 11 30 11 30 -26 0 -53 -30 -79 -70 -64 -36 14 -53 -3 -25 -24 38 -27
89 -14 110 28 15 28 21 152 9 183 -10 26 -34 19 -34 -10 0 -33 -17 -64 -35
-64 -18 0 -35 31 -35 64 0 25 -12 41 -24 29z"/>
<path d="M4122 727 c-51 -54 -8 -157 60 -143 17 3 37 11 45 18 22 18 0 29 -34
16 -25 -9 -35 -9 -47 1 -31 26 -19 40 37 43 44 3 52 6 55 24 4 26 -40 64 -73
64 -12 0 -31 -10 -43 -23z m78 -22 c11 -13 7 -15 -24 -15 -35 0 -49 13 -23 23
22 9 34 7 47 -8z"/>
<path d="M4545 686 c-8 -71 -5 -98 11 -103 12 -4 29 142 18 158 -13 22 -23 4
-29 -55z"/>
<path d="M4688 736 c-16 -8 -28 -11 -28 -5 0 5 -7 9 -15 9 -16 0 -21 -68 -9
-129 8 -40 21 -31 29 22 18 114 85 116 85 3 0 -36 4 -46 16 -46 14 0 16 10 12
61 -4 49 -9 66 -27 80 -28 23 -29 23 -63 5z"/>
<path d="M5030 730 c-34 -34 -23 -67 26 -76 38 -7 42 -15 18 -35 -12 -10 -20
-10 -35 -1 -25 16 -29 15 -29 -3 0 -9 11 -20 25 -27 35 -16 75 12 75 51 0 29
-15 41 -51 41 -22 0 -26 25 -5 33 8 3 22 -1 33 -8 23 -18 33 -19 33 -1 0 16
-37 46 -57 46 -7 0 -22 -9 -33 -20z"/>
<path d="M5246 743 c-13 -14 -5 -72 15 -97 21 -26 62 -35 74 -16 15 24 27 8
22 -26 -9 -54 -34 -77 -74 -69 -25 4 -33 2 -33 -8 0 -18 21 -27 60 -27 57 0
89 81 73 184 -10 60 -26 69 -39 20 -12 -48 -40 -67 -60 -40 -8 11 -14 32 -14
47 0 28 -12 44 -24 32z"/>
<path d="M5456 729 c-51 -40 -20 -149 44 -149 58 0 83 98 35 145 -29 30 -45
31 -79 4z m64 -19 c13 0 20 -60 10 -81 -6 -10 -18 -19 -27 -19 -22 0 -53 29
-53 49 0 26 30 63 47 57 8 -3 18 -6 23 -6z"/>
<path d="M5606 728 c-13 -51 -6 -99 19 -123 28 -29 42 -31 73 -9 18 13 26 13
38 3 20 -17 30 -3 16 24 -6 12 -13 45 -14 72 -4 66 -21 62 -31 -6 -15 -107
-70 -108 -75 0 -3 62 -15 80 -26 39z"/>
</g>
</svg>
