<svg xmlns="http://www.w3.org/2000/svg" version="1.0" width="505.000000pt" height="510.000000pt" viewBox="0 0 505.000000 510.000000" preserveAspectRatio="xMidYMid meet">

<g transform="translate(0.000000,510.000000) scale(0.100000,-0.100000)" fill="#9442aa" stroke="none">
<path d="M1260 3785 l-1254 -1254 1059 -1063 c582 -585 1148 -1153 1257 -1263 l198 -200 1262 1262 1262 1262 -1254 1256 c-690 690 -1259 1255 -1265 1255 -5 0 -575 -565 -1265 -1255z m1156 100 c-2 -6 -37 -21 -78 -34 -80 -23 -121 -55 -153 -121 -10 -19 -19 -36 -20 -38 -2 -2 -28 17 -59 42 -31 25 -66 50 -78 57 -13 6 -25 14 -28 16 -2 2 90 98 205 213 l210 210 3 -167 c1 -92 1 -172 -2 -178z m393 171 c95 -96 171 -178 167 -184 -7 -12 -260 -112 -284 -112 -10 0 -28 20 -44 50 -28 49 -28 52 -28 235 0 102 3 185 8 185 4 0 85 -78 181 -174z m1451 -1459 c0 -13 -1003 -4 -1007 9 -2 7 3 19 12 27 19 19 37 66 30 77 -3 5 -9 28 -14 52 -17 81 -52 162 -85 193 -18 16 -33 35 -35 40 -2 6 -7 9 -12 7 -5 -1 -14 8 -19 20 -5 13 -18 36 -29 52 -11 17 -18 33 -15 38 3 4 1 8 -4 8 -5 0 -12 9 -15 19 -2 11 -26 33 -51 48 -26 16 -44 32 -41 35 4 3 -2 5 -12 5 -10 -1 -21 -6 -24 -10 -9 -12 -41 42 -35 59 3 8 1 14 -4 14 -6 0 -10 -7 -10 -15 0 -18 -1 -18 -35 -5 -22 8 -25 7 -23 -7 2 -11 -10 -20 -40 -31 -24 -8 -46 -12 -48 -9 -8 8 28 121 43 133 17 15 17 60 0 76 -18 17 -10 46 25 86 36 42 36 68 -1 89 l-29 17 67 34 c83 42 125 82 141 135 8 23 16 46 18 51 5 9 1252 -1233 1252 -1247z m-2237 1136 c34 -27 31 -28 -40 -7 -53 15 -54 16 -37 35 18 20 16 21 77 -28z m102 -37 c17 -14 26 -25 20 -25 -5 -1 -28 15 -50 35 -44 39 -18 30 30 -10z m-125 -35 c8 -13 68 -41 87 -41 43 -1 -15 -18 -82 -24 -114 -11 -125 -15 -125 -41 0 -28 16 -35 103 -42 l69 -6 -7 -33 c-4 -22 0 -44 10 -63 23 -46 19 -58 -23 -65 -60 -9 -89 -53 -71 -106 15 -43 30 -37 23 9 -5 33 -3 41 14 50 11 6 30 11 42 11 20 0 20 -1 5 -30 -34 -65 -15 -114 59 -150 26 -13 27 -15 8 -18 -11 -2 -39 6 -61 17 -22 12 -49 21 -60 21 -26 0 -117 -73 -136 -110 -14 -27 -20 -30 -66 -30 -55 0 -84 -11 -111 -44 -16 -19 -17 -50 -18 -322 0 -246 3 -307 15 -330 8 -16 12 -38 9 -50 -8 -32 42 -77 76 -68 14 4 33 7 43 6 77 -5 77 -5 51 -33 -12 -14 -20 -15 -43 -6 -23 8 -33 6 -60 -14 -21 -15 -34 -20 -39 -13 -4 6 -17 14 -28 18 -21 6 -22 3 -23 -79 -1 -76 0 -86 16 -83 11 2 19 -6 23 -22 3 -14 14 -26 25 -28 11 -1 31 -18 44 -37 14 -21 37 -39 59 -46 21 -6 44 -17 52 -23 36 -27 67 -38 122 -46 67 -10 75 -14 60 -32 -6 -7 -11 -17 -12 -23 -1 -5 -5 -15 -8 -20 -7 -10 -121 -109 -151 -130 -7 -5 -38 -35 -67 -65 l-54 -55 -530 530 -530 530 591 591 591 591 52 -19 c28 -11 53 -23 56 -27z m810 -76 c11 -13 11 -20 0 -40 -18 -34 -27 -31 -33 8 -7 48 8 62 33 32z m-70 -5 c10 -5 21 -24 25 -41 6 -27 3 -35 -29 -61 -21 -17 -40 -45 -47 -69 l-12 -39 -41 40 c-38 38 -44 41 -94 39 -43 -2 -52 -5 -47 -18 5 -13 4 -13 -6 -4 -8 8 -18 9 -30 2 -13 -6 -28 -4 -53 8 -35 16 -35 17 -13 27 12 6 26 21 32 34 6 13 24 26 45 32 47 13 61 12 84 -5 11 -8 29 -15 40 -15 21 0 126 55 126 66 0 3 -4 2 -10 -1 -5 -3 -10 -1 -10 4 0 14 16 14 40 1z m-644 -112 c-5 -25 -1 -32 30 -50 28 -16 34 -26 32 -47 -4 -34 -38 -42 -38 -9 0 13 -11 39 -25 58 -29 39 -35 93 -9 83 12 -4 14 -14 10 -35z m294 28 c-8 -8 -28 -18 -45 -21 -30 -7 -30 -7 5 13 42 24 59 27 40 8z m-167 -13 c-4 -10 -2 -14 4 -10 13 8 23 -15 23 -53 0 -29 12 -42 41 -47 13 -2 16 5 14 27 -1 17 -5 33 -9 37 -3 3 -6 12 -6 19 0 9 19 4 57 -16 32 -17 63 -30 70 -30 7 0 26 -20 43 -45 33 -49 86 -71 136 -59 l27 7 -49 45 c-52 47 -45 45 23 -6 l42 -33 21 23 21 23 5 -22 c6 -22 34 -41 34 -23 0 6 5 10 10 10 6 0 10 -9 10 -21 0 -11 -4 -18 -8 -15 -5 3 -9 -8 -9 -24 0 -41 -19 -60 -62 -60 -21 0 -46 -7 -57 -15 -18 -15 -15 -16 34 -13 40 2 51 0 47 -10 -3 -8 -5 -17 -5 -22 0 -5 -12 -22 -26 -39 -32 -39 -70 -40 -138 -6 -87 44 -150 102 -95 88 19 -5 21 -3 14 28 -4 19 -10 38 -13 44 -3 5 -5 27 -3 48 3 41 -17 66 -51 67 -19 0 -25 -15 -33 -79 -6 -49 1 -84 16 -76 5 3 6 0 3 -8 -7 -18 70 -97 95 -97 11 0 33 -11 48 -25 l28 -26 -45 4 c-25 2 -53 7 -62 11 -11 5 -18 4 -18 -2 0 -13 79 -31 145 -33 28 -1 53 -4 58 -6 10 -6 -25 -55 -79 -113 -75 -80 -113 -140 -128 -202 -3 -15 -13 -33 -21 -41 -12 -13 -9 -20 26 -56 22 -22 38 -44 36 -48 -2 -5 -21 -43 -40 -86 -45 -97 -92 -166 -120 -176 -48 -18 -74 -20 -90 -8 -27 20 -66 261 -68 414 -1 86 -2 93 -11 58 -10 -42 -4 -266 11 -370 5 -33 7 -62 5 -64 -2 -2 -23 13 -46 34 -70 63 -81 97 -82 260 l-1 141 53 71 c28 39 52 73 52 77 0 4 15 29 34 56 19 28 47 76 61 108 15 31 31 65 36 74 5 10 9 23 9 29 0 7 7 17 16 23 9 7 24 35 33 64 17 48 17 52 2 47 -24 -7 -44 12 -75 69 -25 45 -26 50 -11 72 18 28 27 31 18 7z m-91 -28 c3 -13 1 -22 -3 -19 -9 5 -13 44 -5 44 2 0 6 -11 8 -25z m22 10 c-4 -8 -8 -15 -10 -15 -2 0 -4 7 -4 15 0 8 4 15 10 15 5 0 7 -7 4 -15z m591 -5 c-3 -5 -11 -10 -16 -10 -6 0 -7 5 -4 10 3 6 11 10 16 10 6 0 7 -4 4 -10z m-465 -34 c0 -8 -4 -17 -9 -21 -6 -3 -9 4 -8 15 1 23 17 28 17 6z m-72 -51 c-3 -3 -9 2 -12 12 -6 14 -5 15 5 6 7 -7 10 -15 7 -18z m393 -2 c13 -16 12 -17 -3 -4 -17 13 -22 21 -14 21 2 0 10 -8 17 -17z m-461 -93 c-14 -11 -28 -20 -32 -20 -3 0 -11 -12 -16 -27 -10 -26 -10 -26 -11 -5 -1 27 40 72 66 72 15 0 14 -4 -7 -20z m850 -140 c0 -5 -7 -7 -15 -4 -8 4 -15 8 -15 10 0 2 7 4 15 4 8 0 15 -4 15 -10z m-830 -35 c-7 -9 -15 -13 -18 -10 -3 2 1 11 8 20 7 9 15 13 18 10 3 -2 -1 -11 -8 -20z m838 -45 c-2 -14 -9 -24 -15 -22 -7 1 -13 -3 -13 -9 0 -6 6 -9 14 -6 8 3 17 -1 20 -9 3 -9 1 -12 -4 -9 -14 9 -12 -9 3 -24 10 -11 9 -14 -1 -18 -10 -4 -10 -9 3 -23 9 -9 13 -24 9 -34 -8 -20 -44 -42 -44 -26 0 5 -9 10 -20 10 -14 0 -18 5 -13 18 6 15 5 15 -10 3 -23 -19 -30 -9 -16 22 7 17 17 24 28 20 12 -4 13 -3 3 5 -14 9 -7 62 8 62 10 0 7 33 -4 41 -4 4 -3 16 3 28 10 18 14 19 32 8 13 -8 19 -21 17 -37z m-875 -16 c9 -10 -12 -46 -24 -39 -14 9 -11 45 4 45 8 0 17 -3 20 -6z m-365 -159 c-18 -35 -34 -63 -36 -61 -2 2 0 25 3 51 8 48 26 75 51 75 10 0 5 -17 -18 -65z m872 5 c0 -5 -5 -10 -11 -10 -5 0 -7 5 -4 10 3 6 8 10 11 10 2 0 4 -4 4 -10z m341 -36 c9 -8 19 -11 23 -7 4 4 4 0 0 -10 -3 -9 -11 -14 -18 -10 -33 21 -76 10 -69 -17 3 -11 0 -27 -7 -35 -7 -8 -10 -24 -7 -34 3 -13 1 -18 -8 -14 -10 3 -12 20 -9 60 6 76 18 97 52 88 15 -4 34 -13 43 -21z m-1156 -16 c-1 -12 -7 -24 -15 -26 -7 -3 -11 -1 -8 4 3 5 8 17 11 27 9 23 14 21 12 -5z m1046 -54 c-8 -29 -8 -29 -15 -5 -6 16 -4 26 5 32 18 11 20 8 10 -27z m83 -33 c3 -5 0 -11 -7 -14 -8 -3 -14 1 -14 9 0 16 13 19 21 5z m-997 -83 c-3 -8 -6 -5 -6 6 -1 11 2 17 5 13 3 -3 4 -12 1 -19z m743 2 c0 -5 -4 -10 -10 -10 -5 0 -10 5 -10 10 0 6 5 10 10 10 6 0 10 -4 10 -10z m-930 -10 c0 -5 -5 -10 -11 -10 -5 0 -7 5 -4 10 3 6 8 10 11 10 2 0 4 -4 4 -10z m701 -22 c11 -21 11 -22 -4 -9 -10 7 -17 17 -17 22 0 15 9 10 21 -13z m-605 -248 c4 -33 3 -34 -11 -16 -8 11 -15 17 -15 13 0 -5 -6 -2 -14 5 -11 11 -11 18 3 44 15 30 16 31 24 10 5 -11 11 -37 13 -56z m1331 38 c-3 -7 -5 -2 -5 12 0 14 2 19 5 13 2 -7 2 -19 0 -25z m-1167 -51 c0 -5 -4 -5 -10 -2 -5 3 -10 14 -10 23 0 15 2 15 10 2 5 -8 10 -19 10 -23z m41 -3 c5 -15 8 -29 5 -31 -2 -2 -8 10 -14 26 -13 38 -5 41 9 5z m2097 -21 c-63 -70 -698 -698 -710 -702 -6 -2 -41 11 -77 29 -92 45 -119 56 -171 70 -37 10 -146 49 -158 56 -2 1 8 24 22 50 l25 49 -19 67 c-17 63 -40 214 -40 269 0 23 14 36 93 88 l92 60 489 1 488 0 -34 -37z m-2246 -43 c10 0 10 -2 -1 -9 -9 -6 -10 -11 -2 -15 6 -4 9 -12 5 -18 -3 -5 -15 4 -25 22 -11 17 -27 34 -37 37 -14 6 -13 8 8 13 18 5 27 2 32 -12 4 -10 13 -18 20 -18z m164 -57 c25 -54 75 -142 110 -195 67 -101 98 -161 87 -172 -4 -3 2 -13 13 -21 10 -8 14 -15 8 -15 -16 0 -39 29 -39 49 0 11 -24 24 -75 42 -41 15 -102 42 -135 60 -40 22 -75 33 -106 35 -56 2 -76 11 -60 27 20 20 13 40 -11 34 -22 -6 -22 -5 -4 8 10 7 15 18 12 24 -8 13 42 91 59 91 14 0 75 83 75 102 0 13 9 28 16 28 2 0 24 -44 50 -97z m616 48 c24 -12 44 -39 35 -47 -2 -2 -21 12 -43 32 -40 36 -39 38 8 15z m313 -195 c5 -42 4 -57 -4 -52 -6 4 -9 12 -6 17 4 5 1 9 -5 9 -6 0 -8 4 -5 10 3 5 1 19 -5 30 -8 15 -7 24 2 34 7 8 14 13 15 12 1 0 5 -28 8 -60z m-172 -171 c2 -41 5 -50 20 -49 10 1 17 -5 17 -17 0 -10 5 -19 10 -19 6 0 10 -9 10 -21 0 -16 -4 -20 -17 -14 -10 3 -31 9 -46 12 -19 4 -32 16 -41 37 -7 17 -27 45 -43 61 -32 32 -141 96 -128 75 5 -8 3 -11 -4 -9 -22 8 -17 23 11 33 21 8 42 4 98 -18 39 -16 74 -26 77 -23 6 7 -18 107 -27 107 -3 0 -4 16 -2 36 4 34 6 31 34 -52 17 -49 31 -111 31 -139z m-981 190 c0 -5 -5 -11 -11 -13 -6 -2 -11 4 -11 13 0 9 5 15 11 13 6 -2 11 -8 11 -13z m1132 -92 c-5 -5 -12 -12 -16 -18 -4 -6 -8 -2 -8 8 0 9 7 17 17 17 9 0 12 -3 7 -7z m-224 -13 c0 -5 -2 -10 -4 -10 -3 0 -8 5 -11 10 -3 6 -1 10 4 10 6 0 11 -4 11 -10z m245 -70 c-3 -5 -11 -10 -16 -10 -6 0 -7 5 -4 10 3 6 11 10 16 10 6 0 7 -4 4 -10z m-7 -54 c-8 -15 -8 -21 1 -24 19 -6 12 -22 -10 -22 -14 0 -19 -5 -16 -14 4 -11 -1 -12 -21 -7 -33 9 -40 29 -10 33 24 3 41 45 26 65 -7 9 -4 9 15 0 21 -10 23 -15 15 -31z m-243 -6 c23 -38 60 -77 169 -174 72 -64 126 -131 126 -157 0 -6 9 -24 21 -40 11 -16 19 -35 16 -42 -2 -6 0 -21 5 -32 5 -11 -35 26 -89 82 -115 119 -181 175 -195 167 -6 -4 -5 -10 3 -15 10 -6 6 -9 -12 -9 -15 0 -38 9 -53 21 -14 11 -26 19 -26 17 0 -9 31 -108 45 -146 27 -75 85 -226 95 -247 24 -52 40 -99 40 -116 0 -11 4 -19 9 -19 5 0 12 -12 15 -26 6 -23 -3 -37 -76 -113 -46 -47 -95 -92 -110 -99 -16 -6 -28 -15 -28 -18 0 -3 6 -2 13 2 6 4 -1 -7 -18 -25 -28 -30 -29 -31 -40 -11 -11 21 -25 17 -25 -7 0 -8 5 -11 10 -8 6 3 10 0 10 -7 0 -15 -124 -148 -138 -148 -4 0 -56 49 -116 109 l-108 108 15 29 c8 17 18 46 22 67 8 39 19 47 29 21 3 -9 13 -14 20 -11 13 5 66 -27 74 -45 2 -4 9 -5 15 -3 7 3 19 0 27 -5 12 -8 13 -13 2 -30 -11 -19 -10 -20 20 -19 26 0 29 2 14 8 -19 7 -19 8 2 13 13 4 22 14 22 25 0 22 32 57 80 86 47 28 59 29 90 7 25 -18 26 -18 43 3 9 12 17 24 17 28 0 11 -88 435 -100 482 -6 23 -21 67 -32 96 -21 53 -22 54 -32 30 -8 -17 -17 -23 -31 -21 -24 5 -45 22 -27 22 7 0 13 12 13 28 1 18 3 21 6 9 4 -16 7 -15 19 8 15 29 11 42 -18 63 -10 7 -18 23 -18 36 0 21 4 22 73 22 69 -1 72 0 71 22 -1 30 17 23 41 -18z m-320 11 c-3 -6 11 -9 31 -8 24 1 39 -3 42 -12 3 -9 0 -11 -7 -6 -18 10 -58 -2 -65 -21 -3 -9 -9 -37 -12 -62 -3 -25 -8 -50 -11 -55 -3 -5 -7 -26 -10 -46 -2 -20 -11 -83 -19 -139 -9 -57 -13 -106 -10 -109 3 -4 2 -11 -3 -17 -5 -6 -16 -69 -25 -141 -10 -71 -21 -154 -27 -184 -5 -30 -9 -70 -9 -90 0 -48 -12 -67 -29 -47 -11 13 -11 43 -1 153 17 202 19 219 26 247 4 15 2 26 -4 26 -11 0 -14 -11 -32 -117 -10 -55 -35 -133 -43 -133 -2 0 5 39 15 88 10 48 20 101 23 117 2 17 6 41 8 55 2 14 7 50 11 80 l6 55 -16 -37 c-9 -21 -21 -35 -27 -31 -6 4 -7 1 -3 -6 5 -7 3 -25 -3 -42 -6 -16 -16 -42 -22 -59 -22 -57 -28 -30 -9 39 25 87 116 361 124 369 11 11 6 50 -8 62 -23 18 -8 39 38 52 22 6 44 12 48 12 3 1 10 4 14 9 10 10 16 9 9 -2z m616 -44 c-8 -8 -11 -3 -11 19 1 25 2 27 11 11 8 -14 8 -22 0 -30z m-64 -70 c12 -13 -11 -27 -43 -27 -19 0 -34 2 -34 4 0 2 -3 12 -7 22 -6 15 -1 16 36 11 24 -3 45 -8 48 -10z m-861 -183 c-14 -26 -26 -51 -26 -57 0 -6 -24 -58 -54 -116 -29 -58 -56 -118 -60 -133 -8 -35 -16 -35 -51 2 l-28 29 29 38 c65 85 76 105 62 114 -9 6 -9 9 -1 9 6 0 14 14 18 30 5 21 14 32 31 36 14 4 41 26 60 50 20 24 39 44 41 44 3 0 -7 -21 -21 -46z m75 -307 c-6 -6 -11 -18 -11 -27 0 -9 -6 -17 -14 -17 -10 0 -11 5 -6 16 5 9 11 24 14 34 3 10 11 15 17 12 8 -5 8 -10 0 -18z m-31 -86 c0 -16 -8 -35 -17 -42 -15 -13 -16 -11 -10 11 4 14 7 33 7 43 0 9 5 17 10 17 6 0 10 -13 10 -29z m60 -136 c0 -8 -4 -15 -10 -15 -5 0 -7 7 -4 15 4 8 8 15 10 15 2 0 4 -7 4 -15z" fill="#9442aa"/>
<path d="M1696 3031 c-4 -5 3 -7 14 -4 23 6 26 13 6 13 -8 0 -17 -4 -20 -9z" fill="#9442aa"/>
<path d="M1965 1740 c3 -5 8 -10 11 -10 2 0 4 5 4 10 0 6 -5 10 -11 10 -5 0 -7 -4 -4 -10z" fill="#9442aa"/>
<path d="M2523 3490 c-32 -13 -28 -17 12 -12 22 3 45 -2 60 -12 30 -20 45 -20 45 -1 0 8 -16 19 -37 24 -44 13 -51 13 -80 1z" fill="#9442aa"/>
<path d="M2430 3315 c1 -26 2 -28 11 -12 8 14 8 22 0 30 -8 8 -11 3 -11 -18z" fill="#9442aa"/>
<path d="M2650 3270 c0 -5 5 -10 10 -10 6 0 10 5 10 10 0 6 -4 10 -10 10 -5 0 -10 -4 -10 -10z" fill="#9442aa"/>
<path d="M2360 3070 c0 -5 5 -10 10 -10 6 0 10 5 10 10 0 6 -4 10 -10 10 -5 0 -10 -4 -10 -10z" fill="#9442aa"/>
<path d="M2326 3061 c-4 -5 -2 -12 3 -15 5 -4 12 -2 15 3 4 5 2 12 -3 15 -5 4 -12 2 -15 -3z" fill="#9442aa"/>
<path d="M2242 3019 c2 -6 8 -10 13 -10 5 0 11 4 13 10 2 6 -4 11 -13 11 -9 0 -15 -5 -13 -11z" fill="#9442aa"/>
<path d="M2175 3011 c-3 -5 -1 -12 5 -16 5 -3 10 1 10 9 0 18 -6 21 -15 7z" fill="#9442aa"/>
<path d="M2380 2769 c0 -5 5 -7 10 -4 6 3 10 8 10 11 0 2 -4 4 -10 4 -5 0 -10 -5 -10 -11z" fill="#9442aa"/>
<path d="M3065 1480 c3 -5 8 -10 11 -10 2 0 4 5 4 10 0 6 -5 10 -11 10 -5 0 -7 -4 -4 -10z" fill="#9442aa"/>
<path d="M2866 1145 c-3 -8 -1 -15 4 -15 6 0 10 7 10 15 0 8 -2 15 -4 15 -2 0 -6 -7 -10 -15z" fill="#9442aa"/>
<path d="M2372 988 c-2 -18 -7 -35 -12 -38 -5 -3 -5 -11 0 -20 8 -13 10 -13 10 1 0 9 7 19 15 23 16 6 21 36 5 36 -5 0 -7 7 -4 15 4 8 2 15 -3 15 -5 0 -10 -14 -11 -32z" fill="#9442aa"/>
<path d="M2430 989 c0 -5 5 -7 10 -4 6 3 10 8 10 11 0 2 -4 4 -10 4 -5 0 -10 -5 -10 -11z" fill="#9442aa"/>
<path d="M2720 986 c0 -9 5 -16 10 -16 6 0 10 4 10 9 0 6 -4 13 -10 16 -5 3 -10 -1 -10 -9z" fill="#9442aa"/>
<path d="M2295 1420 c-3 -5 -1 -10 4 -10 6 0 11 5 11 10 0 6 -2 10 -4 10 -3 0 -8 -4 -11 -10z" fill="#9442aa"/>
<path d="M2027 1523 c-4 -3 -7 -11 -7 -17 0 -6 5 -5 12 2 6 6 9 14 7 17 -3 3 -9 2 -12 -2z" fill="#9442aa"/>
</g>
</svg>